# xmcd
#
# Track frame offsets:
#	150
#	13720
#	24746
#	38176
#	47253
#	59486
#	69517
#	79562
#	90547
#	103928
#	120627
#	135277
#	146917
#	160521
#	173123
#	188483
#	207863
#	221816
#	238103
#	251672
#
# Disc length: 3647 seconds
#
# Revision: 0
# Processed by: cddbd v1.5.2PL0 Copyright (c) Steve Scherf et al.
# Submitted via: EasyCDDAExtractor 16.0.1.1
#
DISCID=110e3d14
DTITLE=Dave Dudley and Charlie Douglas - Interstate Gold and Diesel Duets
DYEAR=1980
DGENRE=TruckCountry
TTITLE0=Dave Dudley - White Line Fever
TTITLE1=Dave Dudley - How Fast Them Trucks Can Go
TTITLE2=Dave Dudley - Girl On The Billboard
TTITLE3=Dave Dudley - Truck Drivin' Man
TTITLE4=Dave Dudley - Give Me Forty Acres
TTITLE5=Dave Dudley - East Bound And Down
TTITLE6=Dave Dudley - Movin' On
TTITLE7=Dave Dudley - A Tombstone Every Mile
TTITLE8=Dave Dudley - Freightliner Fever
TTITLE9=Dave Dudley - The Last Run
TTITLE10=Dave Dudley and Charlie Douglas - Where's The Truck?
TTITLE11=Dave Dudley and Charlie Douglas - D J  Memphis Joe
TTITLE12=Dave Dudley and Charlie Douglas - Sleeper Cab Blues
TTITLE13=Dave Dudley and Charlie Douglas - Big Fanny
TTITLE14=Dave Dudley and Charlie Douglas - Pinball
TTITLE15=Dave Dudley and Charlie Douglas - There's A Lot To Do In Vegas (Don't C
TTITLE15=ha Know)
TTITLE16=Dave Dudley and Charlie Douglas - Rovin' Record Spinner And The Singing
TTITLE16=Truck Driver
TTITLE17=Dave Dudley and Charlie Douglas - New York Joe and Red Neck Tennessee
TTITLE18=Dave Dudley and Charlie Douglas - Radar Blues
TTITLE19=Dave Dudley and Charlie Douglas - The Gear Jammer and The Hobo
EXTD=
EXTT0=
EXTT1=
EXTT2=
EXTT3=
EXTT4=
EXTT5=
EXTT6=
EXTT7=
EXTT8=
EXTT9=
EXTT10=
EXTT11=
EXTT12=
EXTT13=
EXTT14=
EXTT15=
EXTT16=
EXTT17=
EXTT18=
EXTT19=
PLAYORDER=
